<svg width="101" height="102" viewBox="0 0 101 102" fill="none" xmlns="http://www.w3.org/2000/svg">
<path d="M50.278 101.15L9.16129 93.0343L0 19.887H100.68L91.5088 93.0237L50.278 101.15Z" fill="#264DE4"/>
<path d="M83.6563 88.3695L91.4939 25.8715H50.3475V94.9291L83.6563 88.3695Z" fill="#2965F1"/>
<path d="M21.0294 52.9885L22.1596 61.9582H50.3673V52.9885H21.0294ZM18.7589 34.8305L19.904 43.8001H50.3623V34.8305H18.7341H18.7589ZM50.3623 76.2877H50.3078L36.2684 73.5883L35.3711 66.4324H22.695L24.4599 80.5184L50.2781 85.6313H50.3375L50.3623 76.2877Z" fill="#EBEBEB"/>
<path d="M23.6964 0H38.9603V4.5448H30.0766V9.0896H38.9603V13.6344H23.6964V0ZM42.0388 0H57.3027V3.952H48.3992V4.7424H57.2828V13.832H42.014V9.6824H50.8977V8.892H42.014V0H42.0388ZM60.3812 0H75.6451V3.952H66.7168V4.7424H75.6005V13.832H60.3316V9.6824H69.2153V8.892H60.3316V0H60.3812Z" fill="black"/>
<path d="M79.5961 52.9885L81.8716 34.8305H50.278V43.8001H68.0404L66.8952 52.9744H50.278V61.944H65.7997L64.3124 73.5883L50.278 76.2947V85.6278L76.116 80.529L76.3044 79.0117L79.2788 55.3915L79.5862 52.9815L79.5961 52.9885Z" fill="white"/>
</svg>
