<svg width="100" height="100" viewBox="0 0 100 100" fill="none" xmlns="http://www.w3.org/2000/svg">
<path d="M100 19.883L90.889 91.9756L49.9372 100L9.09908 91.9756L0 19.883H100Z" fill="#E44D26"/>
<path d="M49.5575 94.152L82.5229 87.6418L90.2655 25.731H49.5575V94.152Z" fill="#F16529"/>
<path d="M32.08 43.3818H49.5516V34.5029H18.5841L18.879 36.8859L21.9168 61.3515H49.5575V52.4727H33.2125L32.08 43.3818ZM34.8878 65.791H22.5007L24.229 79.7326L49.4986 84.7953H49.5575V75.5306H49.5045L35.749 72.8593L34.8878 65.791Z" fill="#EBEBEB"/>
<path d="M8.84955 0H15.1977V4.43978H21.0029V0H27.351V13.4503H21.0029V8.94715H15.1977V13.4503H8.84955V0ZM35.6978 4.4609H30.1074V0H47.6364V4.4609H42.046V13.4503H35.7038V4.4609H35.6978ZM50.4226 0H57.0452L61.1202 4.72704L65.1892 0H71.8118V13.4503H65.4875V6.78429L61.1202 11.5662H61.0128L56.6395 6.78429V13.4503H50.4226V0ZM74.9679 0H81.3161V9.00206H90.2655V13.4461H74.9858V0H74.9679Z" fill="black"/>
<path d="M49.5575 61.3535H65.2015L63.7269 72.8688L49.5575 75.5399V84.7953L75.6086 79.75L75.7967 78.2491L78.7823 54.8751L79.0917 52.4923H49.5575V61.3705V61.3535ZM49.5575 43.3641V43.3853H80.2508L80.5057 41.3883L81.1125 36.8857L81.4159 34.5029H49.5575V43.3598V43.3641Z" fill="white"/>
</svg>
