<svg width="100" height="101" viewBox="0 0 100 101" fill="none" xmlns="http://www.w3.org/2000/svg">
<path d="M0 0H99.18V100.17H0V0Z" fill="#F7DF1E"/>
<path d="M26.0829 83.7104L33.673 79.0702C35.139 81.6929 36.4694 83.9121 39.6652 83.9121C42.7291 83.9121 44.6587 82.7016 44.6587 77.9967V45.9872H53.9786V78.1261C53.9786 87.8748 48.3256 92.3132 40.0647 92.3132C32.6103 92.3132 28.2838 88.4115 26.0867 83.7066L26.0829 83.7104ZM59.0399 82.6978L66.6262 78.2594C68.6236 81.5558 71.2203 83.9692 75.8143 83.9692C79.6771 83.9692 82.1381 82.0202 82.1381 79.329C82.1381 76.101 79.6093 74.9591 75.3545 73.0748L73.0255 72.0661C66.3022 69.1769 61.8401 65.5454 61.8401 57.879C61.8401 50.8178 67.1652 45.4391 75.4864 45.4391C81.4107 45.4391 85.6618 47.5251 88.7333 52.9685L81.4786 57.6772C79.8807 54.7842 78.1508 53.6422 75.4864 53.6422C72.7579 53.6422 71.0243 55.3895 71.0243 57.6772C71.0243 60.5017 72.7541 61.6437 76.7489 63.3871L79.0779 64.3958C86.9921 67.8217 91.4618 71.32 91.4618 79.1882C91.4618 87.6616 84.8704 92.3018 76.0102 92.3018C67.3423 92.3018 61.7647 88.1146 59.0512 82.6864" fill="black"/>
</svg>
