<svg width="100" height="102" viewBox="0 0 100 102" fill="none" xmlns="http://www.w3.org/2000/svg">
<g clip-path="url(#clip0)">
<path d="M49.4263 102C49.0962 102 48.7684 101.856 48.4791 101.579L45.4642 98.606C45.0139 98.1866 45.2336 98.0383 45.3821 97.9528C45.9825 97.6027 46.1044 97.5236 46.7453 96.9175C46.8126 96.8535 46.9008 96.8761 46.9697 96.9438L49.2859 99.2329C49.3695 99.3082 49.4882 99.3082 49.5657 99.2329L58.5966 90.5512C58.6803 90.4721 58.7345 90.3102 58.7345 90.1446V72.7887C58.7345 72.6156 58.6803 72.4612 58.5948 72.3746L49.5675 63.7005C49.4839 63.6176 49.3731 63.6176 49.2895 63.7005L40.264 72.3746C40.1766 72.4574 40.1209 72.6193 40.1209 72.785V90.1408C40.1209 90.3065 40.1752 90.4646 40.2611 90.5436L42.7341 92.923C44.0769 94.0412 44.8975 92.7235 44.8975 91.3983V74.2683C44.8975 74.0236 45.0128 73.8354 45.1597 73.8354H46.3035C46.446 73.8354 46.5635 74.0236 46.5635 74.2683V91.4058C46.5635 94.3875 45.5869 96.1005 43.8893 96.1005C43.3671 96.1005 42.9557 96.1005 41.8073 95.1593L39.4383 92.8854C38.8528 92.3206 38.4911 91.2665 38.4911 90.1408V72.785C38.4911 71.6555 38.8528 70.6014 39.4383 70.0442L48.4782 61.3587C49.0501 60.8204 49.8096 60.8204 50.377 61.3587L59.4057 70.0479C59.9889 70.6089 60.3528 71.6593 60.3528 72.7887V90.1446C60.3528 91.2703 59.9889 92.3206 59.4057 92.8854L50.377 101.571C50.0877 101.849 49.7599 101.992 49.4254 101.992" fill="#689F63"/>
<path d="M52.2157 90.041C48.2643 90.041 47.4358 87.0201 47.4358 84.4864C47.4358 84.2455 47.5524 84.0534 47.6973 84.0534H48.8638C48.9926 84.0534 49.1011 84.2097 49.1215 84.4216C49.2978 86.4012 49.8222 87.3996 52.2116 87.3996C54.115 87.3996 54.9243 86.6836 54.9243 85.0026C54.9243 84.035 54.6937 83.3159 51.7369 82.834C49.2639 82.4274 47.7358 81.5201 47.7358 78.2259C47.7358 75.1914 49.2729 73.3843 51.8477 73.3843C54.7389 73.3843 56.1721 75.0559 56.353 78.6475C56.3597 78.7718 56.3326 78.8923 56.2829 78.9826C56.2332 79.0692 56.1631 79.1219 56.0907 79.1219H54.9175C54.7954 79.1219 54.6892 78.9788 54.6643 78.7831C54.3818 76.7011 53.6991 76.0347 51.8432 76.0347C49.7657 76.0347 49.5239 77.2395 49.5239 78.1431C49.5239 79.2386 49.8087 79.5586 52.6118 80.1761C55.3877 80.7897 56.7056 81.6556 56.7056 84.9047C56.7056 88.1801 55.0645 90.0587 52.2026 90.0587L52.2157 90.041ZM63.2024 71.6525H63.5053C63.754 71.6525 63.8015 71.3626 63.8015 71.1932C63.8015 70.7489 63.6184 70.7489 63.5166 70.7489H63.2047L63.2024 71.6525ZM62.834 70.2294H63.5053C63.7359 70.2294 64.188 70.2294 64.188 71.0878C64.188 71.6864 63.9574 71.8106 63.8195 71.8859C64.0886 71.916 64.1066 72.2097 64.1428 72.6238C64.1609 72.8836 64.1903 73.3316 64.2445 73.4822H63.8308C63.8195 73.3316 63.7563 72.5033 63.7563 72.4582C63.7291 72.2737 63.6907 72.1833 63.5528 72.1833H63.2115V73.486H62.834V70.2294ZM62.0269 71.8483C62.0269 73.1961 62.6802 74.2879 63.4827 74.2879C64.292 74.2879 64.9453 73.1735 64.9453 71.8483C64.9453 70.4967 64.283 69.4237 63.4805 69.4237C62.6893 69.4237 62.0247 70.4816 62.0247 71.8445L62.0269 71.8483ZM65.2256 71.8558C65.2256 73.4521 64.4412 74.7547 63.485 74.7547C62.5356 74.7547 61.7444 73.4671 61.7444 71.8558C61.7444 70.2143 62.5536 68.9569 63.485 68.9569C64.4231 68.9569 65.2233 70.2181 65.2233 71.8558" fill="#689F63"/>
<path fill-rule="evenodd" clip-rule="evenodd" d="M21.4607 34.0906C21.4607 33.3979 21.2414 32.7617 20.8825 32.4172L11.3077 23.2423C11.1461 23.0842 10.965 23.0014 10.7814 22.9901H10.6824C10.4989 23.0014 10.3178 23.0842 10.1535 23.2423L0.579152 32.4172C0.222438 32.7635 0 33.3998 0 34.0925L0.0210231 58.8048C0.0210231 59.1474 0.127269 59.4674 0.308112 59.6369C0.484435 59.8176 0.705968 59.8176 0.882291 59.6369L6.57434 54.208C6.93377 53.8518 7.15304 53.2223 7.15304 52.5364V40.9916C7.15304 40.3026 7.37232 39.6663 7.73061 39.3237L10.1539 36.9993C10.3339 36.8262 10.5314 36.7403 10.7326 36.7403C10.9306 36.7403 11.1327 36.8254 11.3077 36.999L13.7299 39.3226C14.0884 39.6652 14.3086 40.3015 14.3086 40.9904V52.5345C14.3086 53.2197 14.5308 53.8522 14.8884 54.2061L20.5768 59.6312C20.7554 59.8082 20.9776 59.8082 21.1555 59.6312C21.331 59.4618 21.4422 59.1418 21.4422 58.7992L21.4607 34.0906ZM66.6418 46.9573C66.6418 47.1294 66.5869 47.2886 66.4971 47.3737L63.2085 50.5309C63.1192 50.6163 63.0089 50.6163 62.9198 50.5309L59.6307 47.3737C59.5403 47.2882 59.486 47.129 59.486 46.9573V40.6339C59.486 40.4615 59.5403 40.3026 59.6284 40.216L62.9153 37.0536C63.0057 36.967 63.1165 36.967 63.2069 37.0536L66.496 40.216C66.5864 40.3026 66.6407 40.4615 66.6407 40.6339L66.6418 46.9573ZM67.5302 0.122143C67.3507 -0.0442622 67.1323 -0.0397445 66.9551 0.132308C66.7788 0.30549 66.6698 0.621735 66.6698 0.964334V25.4357C66.6698 25.6766 66.593 25.8988 66.4677 26.0192C66.3434 26.1397 66.1885 26.1397 66.0631 26.0192L63.6646 23.7186C63.3075 23.3744 62.8676 23.3744 62.5091 23.7186L52.9311 32.9247C52.5733 33.2673 52.3524 33.9035 52.3524 34.5887V53.0062C52.3524 53.6952 52.5733 54.3277 52.9311 54.6741L62.5091 63.8866C62.8667 64.2292 63.307 64.2292 63.6658 63.8866L73.2437 54.6703C73.6009 54.3239 73.8224 53.6914 73.8224 53.0025V7.10175C73.8224 6.403 73.5941 5.76034 73.2279 5.41887L67.5302 0.122143ZM99.4249 40.4675C99.7807 40.1234 99.9997 39.4879 99.9997 38.8027V34.3391C99.9997 33.6524 99.7805 33.0188 99.424 32.6732L89.9071 23.472C89.5477 23.1256 89.1069 23.1256 88.7474 23.472L79.1718 32.677C78.8123 33.0233 78.5931 33.6558 78.5931 34.3448V52.7548C78.5931 53.4475 78.8169 54.0875 79.1763 54.4301L88.6909 63.4619C89.0413 63.797 89.4708 63.8007 89.8257 63.4732L95.5811 58.146C95.7619 57.9766 95.8772 57.6566 95.8772 57.3102C95.8772 56.9638 95.7664 56.6401 95.5856 56.4706L85.9511 47.2619C85.7703 47.0925 85.6595 46.7724 85.6595 46.4299V40.6546C85.6595 40.3098 85.768 39.992 85.9489 39.8203L88.9464 36.9402C89.1249 36.7671 89.3442 36.7671 89.5228 36.9402L92.5225 39.8203C92.7011 39.9897 92.8119 40.3098 92.8119 40.6524V45.1927C92.8119 45.5353 92.9227 45.8553 93.1012 46.0285C93.2798 46.1979 93.5014 46.1979 93.6799 46.0248L99.4249 40.4675Z" fill="#333333"/>
<path fill-rule="evenodd" clip-rule="evenodd" d="M89.1873 39.6059C89.2551 39.5393 89.3401 39.5393 89.4088 39.6059L91.2466 41.3717C91.3153 41.4379 91.3574 41.5599 91.3574 41.6917V45.2268C91.3574 45.3586 91.3153 45.4806 91.2466 45.5468L89.4088 47.3125C89.3401 47.3792 89.2551 47.3792 89.1873 47.3125L87.3506 45.5468C87.2805 45.4806 87.2375 45.3586 87.2375 45.2268V41.6917C87.2375 41.5599 87.2782 41.4379 87.3483 41.3717L89.1873 39.6059Z" fill="#689F63"/>
<path d="M57.2048 31.1641L30.3687 9.25659L16.6088 56.0059L43.4441 77.9146L57.2048 31.1641Z" fill="url(#paint0_linear)"/>
<path d="M14.8663 37.6438L33.8154 80.3568L58.8758 49.5206L39.9256 6.80872L14.8663 37.6438Z" fill="url(#paint1_linear)"/>
<path d="M26.8359 23.311V63.7565H47.5613V23.311H26.8359Z" fill="url(#paint2_linear)"/>
</g>
<defs>
<linearGradient id="paint0_linear" x1="43.7787" y1="20.1759" x2="15.3755" y2="54.9666" gradientUnits="userSpaceOnUse">
<stop offset="0.3" stop-color="#3E863D"/>
<stop offset="0.5" stop-color="#55934F"/>
<stop offset="0.8" stop-color="#5AAD45"/>
</linearGradient>
<linearGradient id="paint1_linear" x1="24.4544" y1="59.2451" x2="56.8262" y2="44.8833" gradientUnits="userSpaceOnUse">
<stop offset="0.57" stop-color="#3E863D"/>
<stop offset="0.72" stop-color="#619857"/>
<stop offset="1" stop-color="#76AC64"/>
</linearGradient>
<linearGradient id="paint2_linear" x1="26.8429" y1="43.5349" x2="47.5652" y2="43.5349" gradientUnits="userSpaceOnUse">
<stop offset="0.16" stop-color="#6BBF47"/>
<stop offset="0.38" stop-color="#79B461"/>
<stop offset="0.47" stop-color="#75AC64"/>
<stop offset="0.7" stop-color="#659E5A"/>
<stop offset="0.9" stop-color="#3E863D"/>
</linearGradient>
<clipPath id="clip0">
<rect width="100" height="102" fill="white"/>
</clipPath>
</defs>
</svg>
