<svg width="100" height="100" viewBox="0 0 100 100" fill="none" xmlns="http://www.w3.org/2000/svg">
<path d="M67.2897 45.2898C66.6929 44.9798 66.0912 44.6926 65.4847 44.4282C65.5845 43.8091 65.6775 43.1868 65.7635 42.5613C67.13 32.5077 66.2365 24.4085 63.185 21.7429C60.259 19.1854 55.4738 21.8524 50.6399 28.2242C50.1634 28.8552 49.698 29.5025 49.2437 30.1663C48.9386 29.7241 48.6288 29.2906 48.3141 28.8657C43.25 22.0507 38.1769 19.18 35.1246 21.8537C32.2013 24.4181 31.3339 32.0318 32.5659 41.5602C32.6862 42.5039 32.8243 43.4421 32.9802 44.3748C32.2626 44.6839 31.5686 45.0135 30.9043 45.365C24.9666 48.4956 21.1742 53.4191 21.1742 58.5191C21.1742 63.7859 25.2455 69.0692 31.4305 72.2722C31.9323 72.5302 32.4377 72.77 32.9468 72.9916C32.7819 73.9945 32.6351 75.0057 32.5063 76.025C31.333 85.388 32.25 92.8226 35.1652 95.3705C38.1769 98.0046 43.2311 95.2966 48.1516 88.7784C48.5406 88.2628 48.9305 87.7157 49.3249 87.1441C49.8171 87.8635 50.3222 88.5619 50.8403 89.2393C55.6074 95.4553 60.3168 97.9663 63.2284 95.4102C66.2365 92.772 67.2139 84.7849 65.945 75.0691C65.8487 74.3269 65.7365 73.5697 65.6083 72.7974C65.9639 72.6387 66.3117 72.4742 66.6516 72.3037C73.0812 69.076 77.2654 63.857 77.2654 58.5191C77.2654 53.4 73.3502 48.4505 67.2924 45.2898H67.2897Z" fill="#53C1DE"/>
<path d="M65.8953 68.8572C65.5884 69.0117 65.2743 69.1594 64.953 69.3044C64.1691 65.6215 63.2202 62.0239 62.1128 58.5369C63.178 55.0964 64.09 51.5517 64.8429 47.9266C65.416 48.1783 65.9738 48.4436 66.5099 48.724C71.7003 51.4306 74.8664 55.4337 74.8664 58.5191C74.8664 61.8015 71.4467 66.0699 65.8953 68.8572ZM63.592 75.7748C64.1534 80.0706 64.2328 83.9547 63.8628 86.9895C63.5289 89.718 62.8574 91.537 62.0271 92.2659C60.259 93.8155 56.4792 91.8009 52.4025 86.4849C51.935 85.8749 51.4648 85.2253 50.9919 84.536C52.6915 81.6845 54.2621 78.6624 55.6931 75.4903C58.2492 75.1621 60.7874 74.5681 63.2897 73.7124C63.404 74.4126 63.5054 75.0964 63.5938 75.7638L63.592 75.7748ZM40.296 92.0006C38.5686 92.9251 37.1931 92.9511 36.3619 92.2249C34.5929 90.6781 33.8574 84.7028 34.861 76.702C34.9813 75.7565 35.1176 74.8161 35.2698 73.8806C37.7618 74.6914 40.2871 75.2456 42.8285 75.5395C44.3013 78.7006 45.9098 81.7114 47.6435 84.5524C47.2951 85.0639 46.9389 85.5612 46.5749 86.0445C44.3989 88.9275 42.2175 90.968 40.296 92.0006V92.0006ZM32.2058 68.8367C29.4702 67.4198 27.2121 65.5789 25.6633 63.5712C24.2725 61.7659 23.5704 59.9729 23.5704 58.5191C23.5704 55.4241 26.6155 51.4757 31.6931 48.7937C32.3309 48.4573 32.9744 48.1505 33.6236 47.8733C34.3778 51.5384 35.2911 55.124 36.3574 58.6066C35.2778 62.1392 34.3534 65.7759 33.5902 69.4932C33.1245 69.2917 32.663 69.0728 32.2058 68.8367ZM34.9178 40.8627C33.8637 32.6992 34.5632 26.5407 36.3249 24.998C38.2012 23.3568 42.3502 25.6982 46.7238 31.5832C47.0036 31.9593 47.2843 32.3532 47.565 32.7594C45.8437 35.5831 44.2478 38.5766 42.7879 41.7202C40.2705 42.0623 37.7704 42.6512 35.3032 43.4831C35.1594 42.6151 35.031 41.7421 34.9178 40.8641V40.8627ZM59.1155 49.9152C58.5674 48.4801 57.9991 47.0632 57.4106 45.6645C59.2003 46.0078 60.9142 46.4619 62.5243 47.0199C62.0077 49.5036 61.4085 51.9461 60.7292 54.3382C60.2112 52.8475 59.6733 51.3731 59.1155 49.9152ZM49.2455 35.3538C50.4118 37.2808 51.5134 39.2957 52.546 41.3906C50.3372 41.2329 48.1275 41.2329 45.9169 41.3906C47.0063 39.2133 48.1227 37.1892 49.2455 35.3552V35.3538ZM39.3177 49.9398C38.7671 51.3868 38.2391 52.852 37.7337 54.3355C37.0361 51.8286 36.4395 49.3627 35.9521 46.9816C37.5523 46.4345 39.259 45.9955 41.037 45.6577C40.4401 47.0655 39.8664 48.4929 39.3159 49.9398H39.3177ZM41.0875 71.6376C39.3521 71.3521 37.6275 70.9317 35.9206 70.378C36.416 67.9559 37.0261 65.4367 37.7391 62.8751C38.2464 64.3604 38.7761 65.8265 39.3285 67.2735C39.8905 68.7496 40.4762 70.2043 41.0857 71.6376H41.0875ZM49.3132 81.9402C48.176 80.0884 47.0433 78.0369 45.9386 75.8199C47.0126 75.8846 48.1065 75.917 49.2202 75.917C50.3634 75.917 51.4919 75.8787 52.6056 75.8021C51.5775 77.9322 50.478 79.9809 49.3113 81.9402H49.3132ZM60.7473 62.7452C61.4618 65.1857 62.092 67.6809 62.6354 70.2207C60.9073 70.81 59.16 71.2615 57.4007 71.5733C57.9934 70.1483 58.5674 68.7063 59.1227 67.2475C59.6871 65.7649 60.2286 64.2642 60.7473 62.7452ZM57.0469 65.434C56.1973 67.6696 55.3005 69.8624 54.3565 72.0124C52.6922 72.1929 50.9729 72.2859 49.2202 72.2859C47.4675 72.2859 45.7771 72.2038 44.1417 72.0425C43.1736 69.8998 42.2593 67.7038 41.3989 65.4545C40.5385 63.2051 39.741 60.9221 39.0063 58.6053C39.7446 56.2775 40.5397 53.9936 41.3917 51.7533C42.2425 49.514 43.1489 47.3258 44.111 45.1886C45.7798 44.9971 47.4891 44.8973 49.2184 44.8973C50.9476 44.8973 52.6678 44.9985 54.3348 45.19C55.2861 47.3208 56.1886 49.5004 57.0424 51.7287C57.8962 53.9571 58.7021 56.2306 59.4603 58.5492C58.7112 60.8852 57.9076 63.1782 57.0496 65.4285L57.0469 65.434ZM61.99 24.8885C63.8682 26.5297 64.5983 33.1492 63.4187 41.8297C63.3411 42.394 63.2569 42.9571 63.166 43.5187C60.6952 42.6699 58.1901 42.07 55.6669 41.723C54.2211 38.5765 52.6372 35.581 50.926 32.7567C51.3471 32.1421 51.777 31.5445 52.2157 30.9637C56.3565 25.5026 60.2265 23.3472 61.99 24.8885Z" fill="#ACF5FF"/>
<path d="M49.2185 50.9287C50.2092 50.9287 51.1776 51.3738 52.0013 52.2079C52.8251 53.0419 53.4671 54.2274 53.8462 55.6144C54.2253 57.0013 54.3245 58.5275 54.1312 59.9999C53.938 61.4723 53.4609 62.8248 52.7604 63.8864C52.0599 64.9479 51.1673 65.6708 50.1957 65.9637C49.224 66.2566 48.2169 66.1063 47.3016 65.5318C46.3863 64.9572 45.604 63.9844 45.0536 62.7361C44.5032 61.4879 44.2094 60.0203 44.2094 58.5191C44.2093 57.5222 44.3388 56.5351 44.5905 55.6141C44.8421 54.6931 45.2111 53.8563 45.6763 53.1514C46.1414 52.4466 46.6937 51.8875 47.3014 51.5061C47.9092 51.1247 48.5606 50.9285 49.2185 50.9287" fill="#53C1DE"/>
</svg>
